<svg xmlns="http://www.w3.org/2000/svg" data-name="Layer 1" viewBox="0 0 65 65" id="peso-coin"><path d="M44,32.85h2.49a2,2,0,0,0,0-4H44.93c0-.38,0-.78,0-1.19,0-.14,0-.28,0-.43h1.53a2,2,0,0,0,0-4H43.92a9.89,9.89,0,0,0-8.83-5.45H28a2,2,0,0,0-2,2v3.45H22.51a2,2,0,0,0,0,4H26v1.62H22.51a2,2,0,1,0,0,4H26V48a2,2,0,0,0,4,0V38.88h5.14A9.38,9.38,0,0,0,44,32.85ZM30,21.78h5.14A5.89,5.89,0,0,1,39,23.23H30Zm0,5.45H41c0,.15,0,.29,0,.43a11.2,11.2,0,0,1-.07,1.19H30Zm5.14,7.65H30v-2h9.48A5.34,5.34,0,0,1,35.09,34.88Z"></path><path d="M32.5.5a32,32,0,1,0,32,32A32,32,0,0,0,32.5.5Zm0,60a28,28,0,1,1,28-28A28,28,0,0,1,32.5,60.5Z"></path><path d="M13.4 48.26a23.93 23.93 0 0 0 2.12 2.27l1.37-1.45a24 24 0 0 1-2-2.09zM10.09 21.94l1.81.85a23.34 23.34 0 0 1 1.38-2.5l-1.69-1.07A24.74 24.74 0 0 0 10.09 21.94zM13.42 16.71L15 18a24.1 24.1 0 0 1 2-2.08l-1.37-1.46A25.41 25.41 0 0 0 13.42 16.71zM38.75 8.53a23.81 23.81 0 0 0-3-.59l-.25 2a22.34 22.34 0 0 1 2.8.55zM32.48 9.73h.12l-.1-2a24.7 24.7 0 0 0-3.1.2l.25 2A22.52 22.52 0 0 1 32.48 9.73zM21.54 12.54l-1-1.75A25.76 25.76 0 0 0 18 12.46l1.17 1.62A22 22 0 0 1 21.54 12.54zM26.84 10.44L26.35 8.5a25.54 25.54 0 0 0-3 1l.73 1.86A23.94 23.94 0 0 1 26.84 10.44zM17.91 52.52a25.76 25.76 0 0 0 2.62 1.67l1-1.75a23.41 23.41 0 0 1-2.41-1.54zM9.73 32.5c0-.49 0-1 0-1.45l-2-.13c0 .52 0 1 0 1.58s0 1 0 1.53l2-.12C9.75 33.44 9.73 33 9.73 32.5zM10.13 36.74l-2 .37a24.3 24.3 0 0 0 .77 3l1.9-.62A22 22 0 0 1 10.13 36.74zM10.85 25.45L9 24.83a25.56 25.56 0 0 0-.78 3l2 .37A20.32 20.32 0 0 1 10.85 25.45zM10.07 43a26.87 26.87 0 0 0 1.5 2.73l1.69-1.07a24.5 24.5 0 0 1-1.38-2.51zM55.23 31.14l2-.12a24.43 24.43 0 0 0-.37-3.08l-2 .36A24.47 24.47 0 0 1 55.23 31.14zM54.85 36.83l2 .38a24.46 24.46 0 0 0 .39-3.08l-2-.13A22.36 22.36 0 0 1 54.85 36.83zM44.51 10.84a22.46 22.46 0 0 0-2.8-1.34L41 11.36a22.49 22.49 0 0 1 2.58 1.22zM50.09 18.05a22.31 22.31 0 0 1 1.68 2.31l1.69-1.06a25.21 25.21 0 0 0-1.82-2.52zM53.08 42.25l1.81.86A24.83 24.83 0 0 0 56 40.22l-1.9-.62A23.23 23.23 0 0 1 53.08 42.25zM54.18 25.53l1.91-.61A24.78 24.78 0 0 0 55 22l-1.81.84A23.26 23.26 0 0 1 54.18 25.53zM50 47.06l1.53 1.27a25.12 25.12 0 0 0 1.84-2.5l-1.69-1.08A23.89 23.89 0 0 1 50 47.06zM35.31 55.1l.24 2a26.57 26.57 0 0 0 3.06-.57l-.5-1.94A24.23 24.23 0 0 1 35.31 55.1zM29.35 57.07a26.6 26.6 0 0 0 3.1.2v-2a24.65 24.65 0 0 1-2.85-.19zM23.34 55.52a25.39 25.39 0 0 0 2.95 1l.5-1.93a23.2 23.2 0 0 1-2.71-.89zM46 14.13A23.85 23.85 0 0 1 48.14 16l1.38-1.46a28.64 28.64 0 0 0-2.39-2zM45.84 51L47 52.57a24 24 0 0 0 2.4-2L48 49.13A22.6 22.6 0 0 1 45.84 51zM40.84 53.69l.73 1.86a24.91 24.91 0 0 0 2.82-1.32l-1-1.75A22.43 22.43 0 0 1 40.84 53.69z"></path></svg>